<?xml version="1.0" encoding="utf-8"?>
<!-- Generator: Adobe Illustrator 19.0.1, SVG Export Plug-In . SVG Version: 6.00 Build 0)  -->
<svg version="1.1" id="Calque_1" xmlns="http://www.w3.org/2000/svg" xmlns:xlink="http://www.w3.org/1999/xlink" x="0px" y="0px"
	 viewBox="-239 41 480 480" style="enable-background:new -239 41 480 480;" xml:space="preserve">
<style type="text/css">
	.st0{fill:#B4804E;}
	.st1{fill:#9D7135;}
	.st2{fill:#9D7035;}
	.st3{fill:#FFFFFF;}
</style>
<g id="head4">
	<g>
		<g>
			<polygon class="st0" points="131,232 131,209.8 108.8,209.8 108.8,188 89,188 89,169.5 -85.3,169.5 -85.3,188 -102.4,188 
				-102.4,209.8 -124.7,209.8 -124.7,232 -147.2,232 -147.2,267 149.5,267 149.5,232 			"/>
			<rect x="-7.6" y="68.2" width="18.1" height="54.8"/>
			<rect x="-28.8" y="122.7" width="59.2" height="37.3"/>
			<rect x="-47.2" y="151.6" width="96.5" height="22.5"/>
			<rect x="-63.1" y="422.1" class="st1" width="128.5" height="23.5"/>
			<g>
				<polygon class="st2" points="169,319.5 169,329 159,329 149.1,329 149.1,329 149.1,377 188.5,377 188.5,319.5 				"/>
				<polygon class="st2" points="10.2,295.9 -8.9,295.9 -8.9,409 -102.8,409 -102.8,422.1 107.5,422.1 107.5,409 10.2,409 				"/>
				<rect x="-63.1" y="422.1" class="st2" width="128.5" height="23.5"/>
				<rect x="27" y="297.3" class="st2" width="103.4" height="88.8"/>
				<rect x="-128.7" y="297.3" class="st2" width="103.3" height="88.8"/>
				<polygon class="st2" points="-147.2,275.4 149.1,275.4 149.1,271.4 149.1,271.4 149.1,236.4 131,236.4 131,214.2 108.8,214.2 
					108.8,192.3 89.3,192.3 89.3,173.5 -85.3,173.5 -85.3,192.3 -102.4,192.3 -102.4,214.2 -124.7,214.2 -124.7,236.4 -147.2,236.4 
					-147.2,271.4 -147.2,271.4 				"/>
				<polygon class="st2" points="-167,318.8 -186.5,319.5 -186.5,377 -146.8,377 -146.8,329.2 -166.7,329.2 				"/>
			</g>
			<path d="M67.8,495.1V477H48.3v-11.8h-95.9V477h-19.1v18.1h-19.1V521H87.4v-25.9H67.8z M48.6,504.9h-96.9v-9.8l0,0v-9.8h96.8v9.8
				l0,0L48.6,504.9L48.6,504.9z"/>
			<rect x="-47.6" y="445.6" class="st3" width="95.9" height="19.5"/>
			<rect x="-47.9" y="485.4" class="st3" width="96.8" height="19.5"/>
			<path class="st3" d="M148.5,301.7v-4.4h0.6v-22.1h-296.3v22.2l0,0v4.4H-167v27.6h19.8v56.5V409h18.5h103.3v0.4h16.8V297.6h19.1
				V409h16.8l0,0h103.2H149v-23.2v-56.5h20v-27.6H148.5L148.5,301.7z M-25.4,385.8h-103.3v-88.5h103.3V385.8z M27,385.8v-88.5h103.2
				v88.5H27L27,385.8z"/>
		</g>
	</g>
</g>
</svg>
