<?xml version="1.0" encoding="utf-8"?>
<!-- Generator: Adobe Illustrator 19.0.1, SVG Export Plug-In . SVG Version: 6.00 Build 0)  -->
<svg version="1.1" id="Calque_1" xmlns="http://www.w3.org/2000/svg" xmlns:xlink="http://www.w3.org/1999/xlink" x="0px" y="0px"
	 viewBox="-239 41 480 480" style="enable-background:new -239 41 480 480;" xml:space="preserve">
<style type="text/css">
	.st0{fill:#28254A;stroke:#1F1F3B;stroke-width:0.216;stroke-miterlimit:22.9256;}
	.st1{fill:#DBB292;}
	.st2{fill:#D7A341;}
	.st3{fill:#F3BB65;}
	.st4{fill:#4A1018;}
	.st5{fill:#FFFFFF;}
</style>
<g>
	<path class="st0" d="M-47,109.3h94.9v17.1h37.3V144h36v36.3h20.2v17.1h18.5v37.3h1.7h17.5v36.6h19.5v18.1h18.5v74.3h-17.5v18.9
		h-20.2V271.4h-17.5V382h-0.6v24.2h-18.1v34.6h-17.5v-33.6h-20.9v33.6H86.3v-16.1H67.2v16.1H-64.1v-16.5H-82v16.5h-20.2v-34h-8.1
		h-8.1h-3.6v34h-17.5v-34h-19.8V272.4h-1.7l0,0h-16.5V382h-20.2v-18.9h-17.4v-74.2h18.5v-17.1h19.2v-36.7h8.4h8.4h1.6v-35.6h18.5
		V181h19.5v-36h37v-19.8h37.3v-15.8L-47,109.3L-47,109.3z M44.2,182.6v19.1h38.3v-19.1H44.2L44.2,182.6z M-44.9,162.1v19.1h89.4
		v-19.1H-44.9L-44.9,162.1z M-82.6,182.6v19.1h38.3v-19.1H-82.6z"/>
	<polygon points="-138.8,283.2 -138.8,244.9 -120.3,244.9 -121,202.5 -48.3,203.2 -49.3,181.6 47.2,182.3 47.2,203.2 124.3,203.2 
		123.6,243.2 140.4,244.2 140.4,284.2 82.2,284.9 	"/>
	<polygon class="st1" points="-103.1,278.2 -93.4,278.2 -83.6,278.2 -83.6,259.7 -44.9,259.7 -44.9,241.5 47.2,241.5 47.2,260.3 
		83.6,260.3 83.6,276.5 104.1,276.5 104.1,422.8 66.1,422.8 66.1,440.2 47.9,440.2 47.9,440.2 47.9,456.4 29.4,456.8 -46.6,456.8 
		-46.6,440 -64.8,440 -64.8,422.8 -103.1,422.8 	"/>
	<rect x="161.9" y="271.8" class="st2" width="16.8" height="107"/>
	<rect x="-177.1" y="271.8" class="st2" width="16.8" height="107"/>
	<rect x="-160.7" y="271.8" class="st3" width="2" height="107"/>
	<path class="st4" d="M-102.4,366.3h76v-72.7h-76V366.3L-102.4,366.3z M9.9,366.3v-72.7H-6.9v72.6v17.2H-121v-17.2h-0.3v-72.6h-18.8
		v-17.1h282.5v17.1h-17.9v72.6v0.6v16.5H9.9V366.3L9.9,366.3z M31.5,366.3h73.3v-72.7H31.5V366.3L31.5,366.3z"/>
	<rect x="-120.3" y="383.4" width="17.9" height="23.5"/>
	<polygon points="-140.4,295.7 -120,295.7 -120,456.1 -142.2,456.1 -142.2,419.1 -159.6,419.1 -159.6,271.8 -140.4,271.8 	"/>
	<polygon points="120.2,296 142.4,296 142.4,271.8 161.3,271.8 161.3,420.5 142.4,420.5 142.4,457.8 120.2,457.8 120.2,420.8 
		104.1,420.8 104.1,394.9 120.2,394.9 	"/>
	<polygon points="-64.4,422.1 -102.8,422.1 -102.8,456.1 -82.2,456.1 -82.2,439.6 -64.4,439.6 -64.4,456.1 -64.4,456.1 	"/>
	<rect x="-64.8" y="440" width="18.5" height="16.5"/>
	<rect x="47.9" y="440" width="18.5" height="16.5"/>
	<rect x="104.4" y="384.5" width="18.5" height="16.5"/>
	<polygon points="-25.8,456.8 -25.8,473.5 -25.8,474.2 -7.3,474.2 -7.3,490.4 10.6,490.4 10.6,474.2 28.8,474.2 28.8,473.5 
		28.8,456.8 48.6,456.8 48.6,473.2 67.1,473.2 67.1,477 67.1,521 -21.1,521 -26.1,521 -26.4,521 -32.8,521 -64.4,521 -64.4,472.5 
		-45.9,472.5 -45.9,456.8 	"/>
	<polygon points="66.1,422.8 104.4,422.8 104.4,456.8 83.9,456.8 83.9,440.2 72.1,440.2 66.1,440.2 66.1,440.2 	"/>
	<polygon class="st5" points="28.8,456.8 -25.8,456.8 -25.8,474.2 -7.3,474.2 -7.3,490.4 10.2,490.4 10.2,474.2 28.8,474.2 	"/>
</g>
</svg>
