<?xml version="1.0" encoding="utf-8"?>
<!-- Generator: Adobe Illustrator 18.0.0, SVG Export Plug-In . SVG Version: 6.00 Build 0)  -->
<!DOCTYPE svg PUBLIC "-//W3C//DTD SVG 1.1//EN" "http://www.w3.org/Graphics/SVG/1.1/DTD/svg11.dtd">
<svg version="1.1" id="Calque_1" xmlns="http://www.w3.org/2000/svg" xmlns:xlink="http://www.w3.org/1999/xlink" x="0px" y="0px"
	 viewBox="0 0 960 960" enable-background="new 0 0 960 960" xml:space="preserve">
<g id="head1">
	<g>
		<g>
			<rect x="171.5" y="267.1" fill="#C4915A" width="136.6" height="127.8"/>
			<polygon points="294,314.8 294,288.6 263.7,288.6 263.7,278.5 300.7,278.5 300.7,279.2 345.8,279.2 345.8,248.9 144.6,249.6 
				145.3,530.8 187.7,530.8 189.7,393.6 187.7,393.6 187.7,385.5 234.1,385.5 234.1,386.2 240.2,386.2 240.2,324.3 223.3,324.3 
				223.3,315.5 240.2,315.5 240.2,314.8 246.9,314.8 			"/>
			<rect x="298.7" y="220" fill="#C4915A" width="403" height="57.9"/>
			<polygon fill="#A0753F" points="701,249.6 701,285.2 742,285.2 742,322.9 775,322.9 775,392.2 801.9,392.2 801.9,392.2 
				816.7,392.2 816.7,534.2 851,534.2 851,546.9 851,546.9 851,604.8 818.7,604.8 818.7,645.2 783.1,645.2 783.1,679.5 705,679.5 
				705,718.5 631.7,718.5 631.7,749.4 368.7,749.4 368.7,718.5 294,718.5 294,679.5 221.3,679.5 221.3,645.2 187.7,645.2 
				187.7,604.8 107.6,604.8 107.6,500.5 146,500.5 146,534.2 187,534.2 187,392.2 223.3,392.2 223.3,322.9 263.7,322.9 263.7,285.2 
				298.7,285.2 298.7,249.6 			"/>
			<polygon fill="#FDFEFF" points="453.4,849 453.4,849 405,849 405,885.3 442,885.3 442,921 479.7,921 479.7,849 			"/>
			<g id="eyes_15_">
				<rect x="301.4" y="481" width="84.8" height="177.6"/>
				<rect x="635.1" y="481" width="84.8" height="177.6"/>
			</g>
			<polygon points="299.4,245.6 701,245.6 701.7,245.6 701.7,215.3 670.7,215.3 666,215.3 666,210.6 666,181.6 559.7,179.6 
				556.4,179.6 556.4,174.9 555,147.3 298.7,146 			"/>
			<polygon fill="#C4915A" points="816.7,528.8 851,528.8 851,392.2 816.7,392.2 816.7,395.6 			"/>
			<polygon fill="#C4915A" points="773,384.1 816.7,384.1 816.7,381.4 816,322.9 773,322.9 773,324.9 			"/>
			<polygon fill="#C4915A" points="742,316.9 773.7,316.9 773.7,314.8 773,285.2 742,285.2 742,285.9 			"/>
			<polygon fill="#C4915A" points="699.6,279.9 736,279.9 736,279.2 735.3,250.3 701.7,249.6 699.6,249.6 699.6,253 			"/>
			<polygon points="816.7,534.2 852.4,534.2 851,397.6 816.7,397.6 816.7,400.3 			"/>
			<polygon points="699.6,285.2 736,285.2 736,285.2 735.3,256.3 701.7,255.6 699.6,255.6 699.6,258.3 			"/>
			<polygon fill="#FDFEFF" points="544.2,849 544.2,849 593.4,849 593.4,885.3 557,885.3 557,921 518,921 518,849 			"/>
			<polygon points="773,392.2 816.7,392.2 816.7,389.5 816,330.3 773,331 773,333 			"/>
			<polygon points="742,323.6 773.7,323.6 773.7,321.6 773,292 742,292 742,292.6 			"/>
			<path d="M672.7,898.8v-33.6h-42.4v-33.6l0,0v-31.6h-257v31.6v6.7v26.9H335v34.3h-39.7V960H705v-60.5h-32.3V898.8L672.7,898.8z
				 M479.7,921h-38.3v-0.7l0,0l0.7-17.5l0,0l0.7-18.2L405,884v-0.7l0,0v-14.1l0,0l0.7-20.9l74.7,0.7v15.5v4.7v28.9v4.7V921
				L479.7,921L479.7,921z M555,921h-38.3v-18.2v-4v-28.9v-4.7v-15.5l74.7-0.7l0.7,20.9l0,0V884l0,0v0.7l-37.7,0.7v14.1l0,0L555,921
				L555,921L555,921z"/>
			<rect x="409.7" y="749.4" fill="#FDFEFF" width="180.3" height="49.8"/>
			
				<rect id="mouth_18_" x="413.1" y="662.6" display="none" opacity="0.5" enable-background="new    " width="180.3" height="49.8"/>
		</g>
	</g>
</g>
</svg>
