<?xml version="1.0" encoding="utf-8"?>
<!-- Generator: Adobe Illustrator 18.0.0, SVG Export Plug-In . SVG Version: 6.00 Build 0)  -->
<!DOCTYPE svg PUBLIC "-//W3C//DTD SVG 1.1//EN" "http://www.w3.org/Graphics/SVG/1.1/DTD/svg11.dtd">
<svg version="1.1" id="Calque_1" xmlns="http://www.w3.org/2000/svg" xmlns:xlink="http://www.w3.org/1999/xlink" x="0px" y="0px"
	 viewBox="0 0 960 960" enable-background="new 0 0 960 960" xml:space="preserve">
<g id="head4">
	<g>
		<g>
			<polygon fill="#B4804E" points="740,382.1 740,337.7 695.6,337.7 695.6,294 655.9,294 655.9,257 307.4,257 307.4,294 273.1,294 
				273.1,337.7 228.7,337.7 228.7,382.1 183.7,382.1 183.7,452.1 777,452.1 777,382.1 			"/>
			<rect x="462.8" y="54.5" width="36.3" height="109.7"/>
			<rect x="420.5" y="163.5" width="118.4" height="74.7"/>
			<rect x="383.5" y="221.3" width="193.1" height="45.1"/>
			<rect x="351.8" y="762.2" fill="#9D7135" width="257" height="47.1"/>
			<rect x="532.1" y="512.6" fill="#9D7135" width="54.5" height="176.9"/>
			<g id="eyes_13_">
				<rect x="587.3" y="512.6" width="76.7" height="176.9"/>
				<rect x="296" y="512.6" width="76.7" height="177.6"/>
			</g>
			<g>
				<polygon fill="#9D7035" points="816,557 816,575.9 795.9,575.9 776.3,575.9 776.3,575.9 776.3,672.1 855.1,672.1 855.1,557 				
					"/>
				<polygon fill="#9D7035" points="498.5,509.9 460.2,509.9 460.2,736 272.5,736 272.5,762.2 692.9,762.2 692.9,736 498.5,736 				
					"/>
				<rect x="351.8" y="762.2" fill="#9D7035" width="257" height="47.1"/>
				<rect x="662" y="512.6" fill="#9D7035" width="76.7" height="177.6"/>
				<rect x="372.7" y="512.6" fill="#9D7035" width="54.5" height="176.9"/>
				<rect x="220.7" y="512.6" fill="#9D7035" width="76.7" height="177.6"/>
				<polygon fill="#9D7035" points="183.7,468.9 776.3,468.9 776.3,460.8 776.3,460.8 776.3,390.9 740,390.9 740,346.5 695.6,346.5 
					695.6,302.7 656.6,302.7 656.6,265.1 307.4,265.1 307.4,302.7 273.1,302.7 273.1,346.5 228.7,346.5 228.7,390.9 183.7,390.9 
					183.7,460.8 183.7,460.8 				"/>
				<polygon fill="#9D7035" points="144,555.7 104.9,557 104.9,672.1 184.3,672.1 184.3,576.5 144.6,576.5 				"/>
			</g>
			<path d="M613.5,908.2v-36.3h-39v-23.5H382.8v23.5h-38.3v36.3h-38.3V960h346.5v-51.8H613.5z M575.2,927.7H381.4v-19.5l0,0v-19.5
				h193.7v19.5l0,0V927.7z"/>
			<rect x="382.8" y="809.3" fill="#FFFFFF" width="191.7" height="39"/>
			<rect x="382.1" y="888.7" fill="#FFFFFF" width="193.7" height="39"/>
			<path fill="#FFFFFF" d="M775,521.4v-8.7h1.3v-44.4H183.7v44.4l0,0v8.7H144v55.2h39.7v113V736h37h206.5v0.7h33.6V513.3h38.3V736
				h33.6l0,0h206.5h37v-46.4v-113H816v-55.2H775L775,521.4z M427.2,689.6H220.7V512.6h206.5V689.6z M532.1,689.6V512.6h206.5v176.9
				H532.1z"/>
		</g>
	</g>
</g>
</svg>
