<?xml version="1.0" encoding="utf-8"?>
<!-- Generator: Adobe Illustrator 18.0.0, SVG Export Plug-In . SVG Version: 6.00 Build 0)  -->
<!DOCTYPE svg PUBLIC "-//W3C//DTD SVG 1.1//EN" "http://www.w3.org/Graphics/SVG/1.1/DTD/svg11.dtd">
<svg version="1.1" id="Calque_1" xmlns="http://www.w3.org/2000/svg" xmlns:xlink="http://www.w3.org/1999/xlink" x="0px" y="0px"
	 viewBox="0 0 960 960" enable-background="new 0 0 960 960" xml:space="preserve">
<g>
	<polygon fill="#ECE28C" points="393.2,164.8 603.1,164.8 603.1,198.5 673.7,198.5 673.7,234.1 741.7,234.1 741.7,263.7 
		780.7,263.7 780.7,305.4 815.7,305.4 815.7,371.4 849.3,371.4 849.3,576.5 882.3,576.5 882.3,771 850,771 850,806.6 812.3,806.6 
		812.3,839.6 742.4,839.6 742.4,783.1 779.4,783.1 779.4,709.1 706,709.1 706,761.5 640.8,761.5 640.8,839.6 321.9,839.6 
		321.9,760.2 229.7,760.2 229.7,703 183.3,703 183.3,722.5 177.3,722.5 177.3,785.1 213.6,785.1 213.6,839.6 145.6,839.6 
		145.6,838.2 145.6,838.2 145.6,805.3 111.3,805.3 111.3,771 77.7,771 77.7,612.2 112,612.2 112,370 145.6,370 145.6,302.1 
		181.3,302.1 181.3,268.4 217.6,268.4 217.6,232.8 288.9,232.8 288.9,199.1 393.2,199.1 393.2,199.1 393.2,166.8 	"/>
	<rect x="288.3" y="491.8" width="69.3" height="172.2"/>
	<rect x="603.8" y="491.8" width="69.3" height="172.2"/>
	<polygon fill="#E3B896" stroke="#B13287" stroke-width="0.216" stroke-miterlimit="22.9256" points="214.9,497.8 214.9,694.3 
		251.3,694.3 251.3,727.2 329.3,727.2 329.3,761.5 426.2,761.5 426.2,796.5 392.5,796.5 392.5,825.5 359.6,825.5 359.6,839.6 
		426.9,839.6 426.9,831.5 533.8,832.9 533.8,839.6 603.8,839.6 603.8,828.1 569.5,828.1 569.5,798.5 533.8,798.5 533.8,760.9 
		637.4,760.9 637.4,728.6 706,728.6 706,690.2 742.4,690.2 742.4,495.8 741.7,481 709.4,481 709.4,460.2 708.1,450.1 637.4,450.1 
		636.7,414.4 499.5,414.4 463.2,416.4 321.2,416.4 321.2,449.4 251.9,449.4 251.9,483.7 216.3,483.7 	"/>
	<rect x="463.2" y="379.4" fill="#E3B896" width="35.7" height="43.7"/>
	<rect x="288.3" y="484.4" width="69.3" height="168.9"/>
	<rect x="598.4" y="484.4" width="69.3" height="168.9"/>
	
		<linearGradient id="SVGID_1_" gradientUnits="userSpaceOnUse" x1="-143.405" y1="147.3232" x2="-143.405" y2="289.5232" gradientTransform="matrix(3.3637 0 0 -3.3637 964.3896 1362.7128)">
		<stop  offset="0" style="stop-color:#8A5F50"/>
		<stop  offset="1" style="stop-color:#342716"/>
	</linearGradient>
	<path fill="url(#SVGID_1_)" d="M640.8,863.8h-37v-38.3h-37.7v-26.9h-32.3v-37h103.6v-33H706v-37.7h35.7V495.8h37.7v208.5h37v91.5
		h-37v-74h-37.7v39.7h-32.3v65.3h-65.3l0,0h-3.4V863.8L640.8,863.8z M177.9,496.5h37.7v226H184v73.3h-36.3v-92.2h30.3L177.9,496.5
		L177.9,496.5z M636.7,404.3L636.7,404.3v12.8H499.5v-3.4v-10.1v-14.8h136.6v15.5H636.7z M709.4,460.2h32.3v21.5h-32.3V460.2
		L709.4,460.2z M637.4,423.8h70.6v26.2h-70.6V423.8L637.4,423.8z M321.2,388.8h141.9v27.6H321.2V388.8L321.2,388.8z M251.9,423.8h70
		v25.6h-70V423.8L251.9,423.8z M216.3,458.8h37v25.6h-37V458.8L216.3,458.8z M215.6,694.3h36.3v33h78v34.3h96.9v35h-33.6v28.9h-33.6
		l-0.7,41.7h-37v-40.4h-70.6v-66.6h-35.7L215.6,694.3L215.6,694.3z"/>
	<rect x="463.2" y="164.8" fill="#342715" width="36.3" height="213.9"/>
	<polygon fill="#B661A2" points="673.7,934.4 673.7,886.7 640.8,886.7 640.8,860.4 606.5,860.4 606.5,825.5 567.5,825.5 
		567.5,796.5 533.8,796.5 533.8,825.5 426.2,825.5 426.2,796.5 392.5,796.5 392.5,825.5 357.6,825.5 357.6,860.4 322.6,860.4 
		322.6,886 288.9,886 288.9,934.4 252.6,934.4 252.6,960 323.9,960 323.9,936.5 360.3,936.5 360.3,904.8 391.9,904.8 391.9,960 
		572.8,960 572.8,904.8 604.5,904.8 604.5,936.5 640.8,936.5 640.8,960 709.4,960 709.4,934.4 	"/>
	<polygon points="426.2,825.5 533.8,825.5 533.8,858.4 496.1,858.4 496.1,894.1 463.9,894.1 463.9,858.4 426.2,858.4 	"/>
</g>
</svg>
