<?xml version="1.0" encoding="utf-8"?>
<!-- Generator: Adobe Illustrator 18.0.0, SVG Export Plug-In . SVG Version: 6.00 Build 0)  -->
<!DOCTYPE svg PUBLIC "-//W3C//DTD SVG 1.1//EN" "http://www.w3.org/Graphics/SVG/1.1/DTD/svg11.dtd">
<svg version="1.1" id="Calque_1" xmlns="http://www.w3.org/2000/svg" xmlns:xlink="http://www.w3.org/1999/xlink" x="0px" y="0px"
	 viewBox="0 0 960 960" enable-background="new 0 0 960 960" xml:space="preserve">
<g>
	<path fill="#28254A" stroke="#1F1F3B" stroke-width="0.216" stroke-miterlimit="22.9256" d="M384.1,136.6h189.7v34.3h74.7v35h72
		v72.7h40.4v34.3h37v74.7h3.4h35v73.3h39v36.3h37v148.7h-35v37.7h-40.4V460.8h-35v221.3h-1.3v48.4h-36.3v69.3h-35v-67.3h-41.7v67.3
		h-37v-32.3h-38.3v32.3H349.8v-33h-35.7v33h-40.4v-67.9h-16.1h-16.1h-7.4v67.9h-35v-67.9h-39.7V462.8h-3.4l0,0h-33v219.3H82.7v-37.7
		h-35V495.8h37v-34.3h38.3v-73.3h16.8h16.8h3.4v-71.3h37v-37h39v-72h74v-39.7h74.7v-31.6L384.1,136.6L384.1,136.6z M566.4,283.2
		v38.3h76.7v-38.3H566.4L566.4,283.2z M388.2,242.2v38.3h178.9v-38.3H388.2L388.2,242.2z M312.8,283.2v38.3h76.7v-38.3H312.8z"/>
	<polygon points="200.5,484.4 200.5,407.7 237.5,407.7 236.1,322.9 381.4,324.3 379.4,281.2 572.5,282.6 572.5,324.3 726.6,324.3 
		725.2,404.3 758.9,406.3 758.9,486.4 642.5,487.7 	"/>
	<polygon fill="#DBB292" points="271.8,474.3 291.3,474.3 310.8,474.3 310.8,437.3 388.2,437.3 388.2,401 572.5,401 572.5,438.6 
		645.2,438.6 645.2,470.9 686.2,470.9 686.2,763.6 610.2,763.6 610.2,798.5 573.8,798.5 573.8,798.5 573.8,830.8 536.8,831.5 
		384.8,831.5 384.8,797.9 348.5,797.9 348.5,763.6 271.8,763.6 	"/>
	<rect x="312.2" y="504.6" width="77.4" height="107"/>
	<rect x="573.8" y="504.6" width="77.4" height="107"/>
	<rect x="801.9" y="461.5" fill="#D7A341" width="33.6" height="213.9"/>
	<rect x="123.8" y="461.5" fill="#D7A341" width="33.6" height="213.9"/>
	<rect x="156.7" y="461.5" fill="#F3BB65" width="4" height="213.9"/>
	<path fill="#4A1018" d="M273.1,650.5h152V505.2h-152V650.5L273.1,650.5z M497.8,650.5V505.2h-33.6v145.3v34.3H236.1v-34.3h-0.7
		V505.2h-37.7v-34.3h565.1v34.3h-35.7v145.3v1.3v33H497.8V650.5L497.8,650.5z M540.9,650.5h146.7V505.2H540.9L540.9,650.5
		L540.9,650.5z"/>
	<rect x="237.5" y="684.8" width="35.7" height="47.1"/>
	<polygon points="197.1,509.3 238.1,509.3 238.1,830.2 193.7,830.2 193.7,756.2 158.8,756.2 158.8,461.5 197.1,461.5 	"/>
	<polygon points="718.5,509.9 762.9,509.9 762.9,461.5 800.6,461.5 800.6,758.9 762.9,758.9 762.9,833.5 718.5,833.5 718.5,759.5 
		686.2,759.5 686.2,707.7 718.5,707.7 	"/>
	<polygon points="349.2,762.2 272.5,762.2 272.5,830.2 313.5,830.2 313.5,797.2 349.2,797.2 349.2,830.2 349.2,830.2 	"/>
	<rect x="348.5" y="797.9" width="37" height="33"/>
	<rect x="573.8" y="797.9" width="37" height="33"/>
	<rect x="686.9" y="686.9" width="37" height="33"/>
	<polygon points="426.5,831.5 426.5,865.1 426.5,866.5 463.5,866.5 463.5,898.8 499.2,898.8 499.2,866.5 535.5,866.5 535.5,865.1 
		535.5,831.5 575.2,831.5 575.2,864.5 612.2,864.5 612.2,871.9 612.2,960 435.9,960 425.8,960 425.2,960 412.4,960 349.2,960 
		349.2,863.1 386.2,863.1 386.2,831.5 	"/>
	<polygon points="610.2,763.6 686.9,763.6 686.9,831.5 645.8,831.5 645.8,798.5 622.3,798.5 610.2,798.5 610.2,798.5 	"/>
	<polygon fill="#FFFFFF" points="535.5,831.5 426.5,831.5 426.5,866.5 463.5,866.5 463.5,898.8 498.5,898.8 498.5,866.5 
		535.5,866.5 	"/>
</g>
</svg>
