<?xml version="1.0" encoding="utf-8"?>
<!-- Generator: Adobe Illustrator 18.0.0, SVG Export Plug-In . SVG Version: 6.00 Build 0)  -->
<!DOCTYPE svg PUBLIC "-//W3C//DTD SVG 1.1//EN" "http://www.w3.org/Graphics/SVG/1.1/DTD/svg11.dtd">
<svg version="1.1" id="Calque_1" xmlns="http://www.w3.org/2000/svg" xmlns:xlink="http://www.w3.org/1999/xlink" x="0px" y="0px"
	 viewBox="0 0 873 228.3" enable-background="new 0 0 873 228.3" xml:space="preserve">
<g>
	<path fill="#FFFFFF" d="M59.6,126.4l-13.5,14.4v1.3l47.1,0.4l-0.4,56.7h147.1c9.2-3.9,15.7-10.5,16.6-21.8l0.4-50.6h-17l-0.4,27.1
		l-45-0.4v-26.6h-17v45.8l59.8,0.4c0,4.8-0.9,7.4-3.5,8.3l-122.6-0.4v-8.7H163v-18.3l-50.2,0.4v-5.2l3.1-5.2h55.9v-17.5L59.6,126.4
		L59.6,126.4z"/>
	<path fill="#FFFFFF" d="M473.3,126.4v72.4h17l0.4-27.9l3.1-1.7l38.8-1.3c10-1.7,17-7,18.3-17.5v-24L473.3,126.4L473.3,126.4z
		 M490.8,138.6L534,139c1.3,5.2,0,8.7-3.5,10.9h-40.2L490.8,138.6z"/>
	<path fill="#FFFFFF" d="M575,126.4c-7.4,2.6-12.7,8.7-16.1,18.3v54.6h77.7v-17.9h-60.2v-9.6h50.6V156h-51.1
		c0.9-6.5,3.1-11.8,8.3-13.5h51.9v-15.7H575V126.4z"/>
	<path fill="#FFFFFF" d="M659.2,126.4c-8.3,3.5-13.5,10.5-16.6,20.9v51.9h18.8v-26.2h42.3v26.2h86c7.9-4.4,13.1-11.8,14.8-23.6
		v-21.4l-52.4-0.4V146h83.4l-19.2-19.2h-69.8c-9.2,3.9-14,12.7-15.7,25.3v20.9l55.4,0.4l0.4,8.3h-62l-0.9-54.1l-0.9-0.9h-63.7V126.4
		z M703.7,143.4v10.5h-38.8v-1.3l-1.3-0.4v-4.8c0.9-2.2,2.6-3.9,5.2-4.4L703.7,143.4z"/>
	<path fill="#FFFFFF" d="M348.9,126.4v72.4H427v-53.2c-1.7-9.6-7-16.1-17-19.2L348.9,126.4L348.9,126.4z M365.5,143.8h36.7
		c5.7,1.7,7.4,5.7,7.4,10.5l-0.4,26.2h-43.2L365.5,143.8z"/>
	<path fill="#FFFFFF" d="M263.4,147.8l0.4,51.1h77.2v-17.9l-58.5-0.4v-8.3h51.1v-18.8h-49.8c0-2.2,0-4.4,0-6.5
		c0.9-2.6,2.6-3.5,5.2-3.5h52.4v-17.9h-60.2C272.6,129.4,266.4,136.4,263.4,147.8z"/>
	<path fill="#FFFFFF" d="M319.7,37.3c4.8,3.5,7.9,9.6,7.9,16.1c0,7.4-3.9,14-9.6,17.5c6.1,3.5,10,10,10,17.5
		c0,8.7-5.2,16.1-13.1,19.2H78.3l19.2-19.2h151.9V36h66.8C317.1,36.5,318.4,36.9,319.7,37.3L319.7,37.3L319.7,37.3z M265.6,52.2v8.7
		h40.6v-8.7H265.6L265.6,52.2z M265.6,81v8.7h40.6V81H265.6z"/>
	<path fill="#FFFFFF" d="M147.3,36.5v8.3h-10v27.9h-9.2V44.8h-15.7v-7.9c0.4,0,0.4-0.4,0.9-0.4L147.3,36.5L147.3,36.5z"/>
	<polygon fill="#FFFFFF" points="162.1,36.5 162.1,47.8 186.6,47.8 186.6,36.5 195.7,36.5 195.7,72.7 186.6,72.7 186.6,57.4 
		162.1,57.4 162.1,72.7 153,72.7 153,36.5 	"/>
	<path fill="#FFFFFF" d="M211,64.4h29.2v8.3l-38.8-0.4V44.8c0.4-2.6,1.7-4.8,3.1-6.1c0.4-0.4,0.9-0.4,1.7-0.9
		c0.9-0.4,1.7-0.9,2.6-0.9h31.9v7.4h-27.9v4.8l22.7,0.4v8.3h-24L211,64.4z"/>
	<path fill="#FFFFFF" d="M594.6,107.6h-20.1h-74.6V58.3c0.9-10.9,5.7-18.3,15.7-21.8h55.9c6.5,3.9,3.5,17.9-3.9,17.5
		c-14.4,0-28.8,0-43.2,0c-5.7,1.7-8.3,5.7-8.3,10.9v24.9l61.5,0.4V36h17.5v24.9h22.7l25.3-25.3h22.7l-25.3,25.7
		c10,8.7,16.1,17.5,17.9,27.5l122.2,1.7l15.7,15.7H641.3V91c-3.1-4.8-6.5-9.2-12.2-12.2h-33.2l-0.4,26.6L594.6,107.6z"/>
	<path fill="#FFFFFF" d="M414.4,60.5L414.4,60.5c0-3.9,1.3-8.7,3.9-13.1c3.5-6.1,8.3-10.5,12.2-10.9h60.2v71.1h-14.8V81.4h-45.4v8.3
		v17.9h-98.2V36.5h18.8v53.2h63.3V60.5L414.4,60.5z M435.8,52.6c-1.7,0-3.5,2.2-3.5,4.8v4.8h42.8v-9.6L435.8,52.6L435.8,52.6z"/>
</g>
</svg>
