<?xml version="1.0" encoding="utf-8"?>
<!-- Generator: Adobe Illustrator 19.0.1, SVG Export Plug-In . SVG Version: 6.00 Build 0)  -->
<svg version="1.1"
	 id="svg22880" xmlns:svg="http://www.w3.org/2000/svg" xmlns:cc="http://creativecommons.org/ns#" xmlns:dc="http://purl.org/dc/elements/1.1/" xmlns:rdf="http://www.w3.org/1999/02/22-rdf-syntax-ns#"
	 xmlns="http://www.w3.org/2000/svg" xmlns:xlink="http://www.w3.org/1999/xlink" x="0px" y="0px" viewBox="-329 176.9 300 208.1"
	 style="enable-background:new -329 176.9 300 208.1;" xml:space="preserve">
<style type="text/css">
	.st0{fill:#FFFFFF;}
</style>
<g>
	<path id="path7364" class="st0" d="M-179.4,220.9c-4.4,0-8-3.6-8-8c0-4.4,3.6-8,8-8c4.4,0,8,3.6,8,8
		C-171.5,217.3-175,220.9-179.4,220.9 M-179.5,176.9c-19.9,0-36,16.1-36,36c0,19.9,16.1,36,36,36c19.9,0,36-16.1,36-36
		C-143.5,193.1-159.6,176.9-179.5,176.9"/>
	<path id="path7368" class="st0" d="M-154,320.5l1.4-0.7c1.4-0.7,8.5-4.7,7.1-9.7c-1.1-3.8-5.9-5.4-5.9-5.4s-30-9-48.6-15.1
		c-19.3-6.3-19.9-20-20-22.5c-1.1-15.2,10.5-21.5,12-22.3l0.9-0.4l0.3,0.5l-0.6,0.3c-1,0.5-6.7,3.7-5.9,7.9c0.8,4,5.8,5.4,5.8,5.4
		s30,9,48.6,15.1c19.3,6.3,19.9,20,20,22.5c1.2,16.8-11.3,23.2-13.3,24.2l-1.5,0.7L-154,320.5z"/>
	<path id="path7372" class="st0" d="M-306.1,335.7c-1.7-2.4-4.7-3.8-7.6-3.8c-2.5,0-4.8,0.9-6.7,2.5c-2,1.8-3.3,4.6-3.3,7.3
		c0,2.4,1.1,5,2.8,6.7c1.9,2.1,4.7,3.2,7.4,3.2c3.4,0,6.9-2.1,8.4-5.2h-12v-5h18.8v0.6c0,8.4-7.1,14.8-15.3,14.8
		c-8.3,0-15.4-6.5-15.4-14.9c0-8.5,7-15.1,15.3-15.1c5.8,0,11.8,3.5,14,9H-306.1z"/>
	<path id="path7376" class="st0" d="M-268.2,326.6c-8.3,0-15,6.7-15,15.1c0,8.3,6.8,14.9,15,14.9c8.2,0,15-6.7,15-15
		C-253.1,333.3-259.9,326.6-268.2,326.6 M-258.5,341.7c0,5.4-4.4,9.8-9.7,9.8c-5.3,0-9.7-4.4-9.7-9.7c0-5.5,4.3-9.9,9.7-9.8l0-0.1
		C-262.8,331.8-258.5,336.2-258.5,341.7"/>
	<path id="path7380" class="st0" d="M-228.4,338.3v-5.9h1c1.1,0,2.5-0.2,3.5,0.3c1.1,0.4,1.8,1.4,1.8,2.5c0,1.1-0.6,2.2-1.6,2.6
		c-1,0.5-2.5,0.4-3.6,0.4H-228.4z M-233.8,356h7.2c2.8-0.1,5.7-0.2,8-1.9c2.2-1.7,3.5-4.1,3.5-6.9c0-3.3-1.8-6-4.9-7
		c2.1-1,3.2-3.2,3.2-5.5c0-2.7-1.7-5.3-4-6.5c-2.4-1.2-5.1-1.1-7.7-1.1h-5.2V356z M-228.4,350.8v-7.4h2.3c1.3,0,2.6,0,3.8,0.6
		c1.2,0.7,1.9,1.6,1.9,3c0,1.2-0.4,2.1-1.4,2.8c-1.4,0.9-2.8,1-4.4,1H-228.4z"/>
	<path id="path7384" class="st0" d="M-193.8,327.2h15.5v5.2h-10.1v6.6h9.7v5.2h-9.7v6.6h10.1v5.2h-15.5V327.2z"/>
	<path id="path7388" class="st0" d="M-155.6,327.2h5.3v23.6h8.8v5.2h-14.1V327.2z"/>
	<path id="path7390" class="st0" d="M-121.6,327.2h5.3V356h-5.3V327.2z"/>
	<path id="path7394" class="st0" d="M-92.3,327.2h6l12,21.1v-21.1h5.3V356h-5.9L-87,335v21h-5.3V327.2z"/>
	<path id="path7398" class="st0" d="M-42.1,347.9c0,2.3,1.9,3.6,4,3.6c2,0,3.8-1.5,3.8-3.6c0-3.2-2.6-4.1-5-4.9
		c-1.9-0.6-3.5-1.2-5-2.6c-1.4-1.5-2.3-3.5-2.3-5.5c0-4.7,3.9-8.2,8.5-8.2c4.4,0,8.5,3.7,8.4,8.2h-5.5c-0.1-1.8-1.6-3-3.2-3
		c-1.8,0-2.9,1.3-2.8,3c0,2.1,1.9,2.9,3.6,3.5c2,0.7,4,1.3,5.6,2.6c2.1,1.6,3,3.7,3,6.6c0,5.1-4.2,9.1-9.4,9.1
		c-4.9,0-9.3-3.8-9.3-8.8H-42.1z"/>
	<path id="path7402" class="st0" d="M-318.7,384.6h-10v-19.7h2.1v18.2h7.9V384.6z"/>
	<path id="path7406" class="st0" d="M-315.2,365h2l-2,5.4h-1.1L-315.2,365z"/>
	<path id="path7410" class="st0" d="M-300.5,364.2h-1.5l2.9-2.6h2.7L-300.5,364.2z M-297.4,373.6v1.4h-6.7v8.1h8.9v1.4h-10.9v-19.7
		h10.6v1.4h-8.6v7.3H-297.4z"/>
	<path id="path7414" class="st0" d="M-270.6,379.9c-1.4,2.5-4.5,5.1-8.8,5.1c-2.9,0-5.5-1-7.2-2.5c-2-1.8-3.1-4.3-3.1-7.8
		c0-3.3,1.2-5.8,3.1-7.6c1.9-1.7,4.4-2.6,7.3-2.6c4.1,0,6.9,2,8.3,4.7l-2.1,0.4c-1-2-2.9-3.8-6.2-3.8c-4.2,0-8.3,2.5-8.3,8.9
		c0,6.2,4,8.8,8.2,8.8c3.7,0,5.9-2.6,6.7-4.2L-270.6,379.9z"/>
	<path id="path7418" class="st0" d="M-266.5,374.8c0,7,4.7,10.2,10.3,10.2c5.6,0,10.3-3.2,10.3-10.2c0-7-4.7-10.2-10.3-10.2
		C-261.8,364.6-266.5,367.7-266.5,374.8L-266.5,374.8z M-256.2,365.9c4.2,0,8.2,2.6,8.2,8.9c0,6.2-4,8.8-8.2,8.8
		c-4.2,0-8.2-2.6-8.2-8.8C-264.4,368.5-260.4,365.9-256.2,365.9L-256.2,365.9z"/>
	<path id="path7422" class="st0" d="M-229.8,384.6h-10v-19.7h2.1v18.2h7.9V384.6z"/>
	<path id="path7426" class="st0" d="M-214.7,373.6v1.4h-6.7v8.1h8.9v1.4h-10.9v-19.7h10.7v1.4h-8.6v7.3H-214.7z"/>
	<path id="path7430" class="st0" d="M-192.4,384.6c7,0,9.9-3.6,9.9-9.9c0-6.4-3.1-9.8-9.9-9.8h-6.2v19.7H-192.4z M-196.6,383.2
		v-16.8h4.1c5.6,0,7.9,3,7.9,8.4c0,5.6-2.6,8.4-7.9,8.4H-196.6z"/>
	<path id="path7434" class="st0" d="M-166.4,373.6v1.4h-6.7v8.1h8.9v1.4h-10.9v-19.7h10.6v1.4h-8.6v7.3H-166.4z"/>
	<path id="path7438" class="st0" d="M-141.2,384.6h-10v-19.7h2.1v18.2h7.9V384.6z"/>
	<path id="path7442" class="st0" d="M-137.6,365.6h2l-2,5.4h-1.1L-137.6,365.6z"/>
	<path id="path7444" class="st0" d="M-127.9,364.9h2.1v19.7h-2.1V364.9z"/>
	<path id="path7448" class="st0" d="M-105.5,382.5c1.2-3.2,3.5-8.9,7.2-17.6h3.2v19.7h-1.9c0-8.9,0-14.9,0.1-18.1h-0.1
		c-1.2,3.2-3.7,9-7.5,18.1h-2c-3.7-8.9-6.2-14.9-7.5-18.1h-0.1c0.1,3.2,0.1,9.2,0.1,18.1h-1.9v-19.7h3.2
		C-109.2,373.7-106.8,379.3-105.5,382.5L-105.5,382.5z"/>
	<path id="path7452" class="st0" d="M-75.6,378.4l2.5,6.2h2.3l-8.4-19.7h-2.6l-8.3,19.7h2.3l2.5-6.2H-75.6z M-76.2,377h-8.4l2.1-5.4
		c0.7-1.7,1.4-3.4,2-5.3h0.1c0.7,1.9,1.4,3.6,2,5.4L-76.2,377z"/>
	<path id="path7456" class="st0" d="M-47.2,382.5c-2.2,1.5-5.1,2.5-8.8,2.5c-6.4,0-11-3.8-11-10.2c0-7.3,5.7-10.2,11.1-10.2
		c3.7,0,6.5,1.4,8.5,3.9l-2.1,0.6c-1.6-2-3.3-3.1-6.4-3.1c-3.9,0-9.1,2.3-9.1,8.9c0,5.6,3.9,8.9,9.1,8.9c2.5,0,4.9-0.6,6.5-1.7v-5.2
		h-5.9v-1.4h8V382.5z"/>
	<path id="path7460" class="st0" d="M-31.3,373.6v1.4h-6.7v8.1h8.8v1.4h-10.9v-19.7h10.6v1.4h-8.6v7.3H-31.3z"/>
</g>
</svg>
