<?xml version="1.0" encoding="utf-8"?>
<!-- Generator: Adobe Illustrator 19.0.1, SVG Export Plug-In . SVG Version: 6.00 Build 0)  -->
<svg version="1.1" id="Calque_1" xmlns="http://www.w3.org/2000/svg" xmlns:xlink="http://www.w3.org/1999/xlink" x="0px" y="0px"
	 viewBox="-239 41 480 480" style="enable-background:new -239 41 480 480;" xml:space="preserve">
<style type="text/css">
	.st0{fill:#C4915A;}
	.st1{fill:#A0753F;}
	.st2{fill:#FDFEFF;}
	.st3{display:none;opacity:0.5;enable-background:new    ;}
</style>
<g id="head1">
	<g>
		<g>
			<rect x="-153.2" y="174.6" class="st0" width="68.3" height="63.9"/>
			<polygon points="-92,198.4 -92,185.3 -107.1,185.3 -107.1,180.3 -88.6,180.3 -88.6,180.6 -66.1,180.6 -66.1,165.5 -166.7,165.8 
				-166.3,306.4 -145.2,306.4 -144.2,237.8 -145.2,237.8 -145.2,233.8 -121.9,233.8 -121.9,234.1 -118.9,234.1 -118.9,203.2 
				-127.3,203.2 -127.3,198.8 -118.9,198.8 -118.9,198.4 -115.6,198.4 			"/>
			<rect x="-89.6" y="151" class="st0" width="201.5" height="28.9"/>
			<polygon class="st1" points="111.5,165.8 111.5,183.6 132,183.6 132,202.5 148.5,202.5 148.5,237.1 162,237.1 162,237.1 
				169.4,237.1 169.4,308.1 186.5,308.1 186.5,314.5 186.5,314.5 186.5,343.4 170.4,343.4 170.4,363.6 152.5,363.6 152.5,380.8 
				113.5,380.8 113.5,400.2 76.9,400.2 76.9,415.7 -54.6,415.7 -54.6,400.2 -92,400.2 -92,380.8 -128.3,380.8 -128.3,363.6 
				-145.2,363.6 -145.2,343.4 -185.2,343.4 -185.2,291.3 -166,291.3 -166,308.1 -145.5,308.1 -145.5,237.1 -127.3,237.1 
				-127.3,202.5 -107.1,202.5 -107.1,183.6 -89.6,183.6 -89.6,165.8 			"/>
			<polygon class="st2" points="-12.3,465.5 -12.3,465.5 -36.5,465.5 -36.5,483.6 -18,483.6 -18,501.5 0.9,501.5 0.9,465.5 			"/>
			<polygon points="-89.3,163.8 111.5,163.8 111.9,163.8 111.9,148.7 96.4,148.7 94,148.7 94,146.3 94,131.8 40.9,130.8 39.2,130.8 
				39.2,128.5 38.5,114.7 -89.6,114 			"/>
			<polygon class="st0" points="169.4,305.4 186.5,305.4 186.5,237.1 169.4,237.1 169.4,238.8 			"/>
			<polygon class="st0" points="147.5,233.1 169.4,233.1 169.4,231.7 169,202.5 147.5,202.5 147.5,203.5 			"/>
			<polygon class="st0" points="132,199.5 147.9,199.5 147.9,198.4 147.5,183.6 132,183.6 132,184 			"/>
			<polygon class="st0" points="110.8,181 129,181 129,180.6 128.6,166.2 111.9,165.8 110.8,165.8 110.8,167.5 			"/>
			<polygon points="169.4,308.1 187.2,308.1 186.5,239.8 169.4,239.8 169.4,241.2 			"/>
			<polygon points="110.8,183.6 129,183.6 129,183.6 128.6,169.2 111.9,168.8 110.8,168.8 110.8,170.2 			"/>
			<polygon class="st2" points="33.1,465.5 33.1,465.5 57.7,465.5 57.7,483.6 39.5,483.6 39.5,501.5 20,501.5 20,465.5 			"/>
			<polygon points="147.5,237.1 169.4,237.1 169.4,235.8 169,206.2 147.5,206.5 147.5,207.5 			"/>
			<polygon points="132,202.8 147.9,202.8 147.9,201.8 147.5,187 132,187 132,187.3 			"/>
			<path d="M97.4,490.4v-16.8H76.2v-16.8l0,0V441H-52.4v15.8v3.4v13.5h-19.1v17.1h-19.9V521h204.9v-30.2H97.4V490.4L97.4,490.4z
				 M0.9,501.5h-19.1v-0.4l0,0l0.4-8.8l0,0l0.4-9.1l-18.9-0.3v-0.4l0,0v-7l0,0l0.4-10.5l37.4,0.4v7.8v2.4v14.5v2.4v9.1L0.9,501.5
				L0.9,501.5z M38.5,501.5H19.4v-9.1v-2v-14.5v-2.4v-7.8l37.4-0.4l0.4,10.5l0,0v7.1l0,0v0.4l-18.9,0.4v7l0,0L38.5,501.5L38.5,501.5
				L38.5,501.5z"/>
			<rect x="-34.1" y="415.7" class="st2" width="90.1" height="24.9"/>
			<rect id="mouth_18_" x="-32.4" y="372.3" class="st3" width="90.2" height="24.9"/>
		</g>
	</g>
</g>
</svg>
