<?xml version="1.0" encoding="utf-8"?>
<!-- Generator: Adobe Illustrator 19.0.1, SVG Export Plug-In . SVG Version: 6.00 Build 0)  -->
<svg version="1.1" id="Calque_1" xmlns="http://www.w3.org/2000/svg" xmlns:xlink="http://www.w3.org/1999/xlink" x="0px" y="0px"
	 viewBox="-239 41 480 480" style="enable-background:new -239 41 480 480;" xml:space="preserve">
<style type="text/css">
	.st0{fill:#ECE28C;}
	.st1{fill:#E3B896;stroke:#B13287;stroke-width:0.216;stroke-miterlimit:22.9256;}
	.st2{fill:#E3B896;}
	.st3{fill:url(#SVGID_1_);}
	.st4{fill:#342715;}
	.st5{fill:#B661A2;}
</style>
<g>
	<polygon class="st0" points="-42.3,123.4 62.5,123.4 62.5,140.2 97.9,140.2 97.9,158 131.9,158 131.9,172.8 151.4,172.8 
		151.4,193.7 168.9,193.7 168.9,226.7 185.7,226.7 185.7,329.2 202.2,329.2 202.2,426.5 186.1,426.5 186.1,444.3 167.2,444.3 
		167.2,460.8 132.3,460.8 132.3,432.5 150.8,432.5 150.8,395.5 114,395.5 114,421.8 81.4,421.8 81.4,460.8 -78.1,460.8 -78.1,421.1 
		-124.2,421.1 -124.2,392.5 -147.2,392.5 -147.2,402.2 -150.2,402.2 -150.2,433.5 -132.1,433.5 -132.1,460.8 -166.1,460.8 
		-166.1,460.1 -166.1,460.1 -166.1,443.6 -183.2,443.6 -183.2,426.5 -200.2,426.5 -200.2,347.1 -182.9,347.1 -182.9,226 -166.1,226 
		-166.1,192 -148.2,192 -148.2,175.2 -130.1,175.2 -130.1,157.4 -94.6,157.4 -94.6,140.5 -42.3,140.5 -42.3,140.5 -42.3,124.4 	"/>
	<rect x="-94.8" y="286.9" width="34.6" height="86.1"/>
	<rect x="62.9" y="286.9" width="34.6" height="86.1"/>
	<polygon class="st1" points="-131.6,289.9 -131.6,388.1 -113.3,388.1 -113.3,404.6 -74.3,404.6 -74.3,421.8 -25.8,421.8 
		-25.8,439.2 -42.8,439.2 -42.8,453.8 -59.2,453.8 -59.2,460.8 -25.6,460.8 -25.6,456.8 27.9,457.5 27.9,460.8 62.9,460.8 62.9,455 
		45.8,455 45.8,440.2 27.9,440.2 27.9,421.5 79.8,421.5 79.8,405.3 114,405.3 114,386.1 132.3,386.1 132.3,288.9 131.9,281.5 
		115.8,281.5 115.8,271.1 115,266 79.8,266 79.4,248.2 10.9,248.2 -7.3,249.2 -78.3,249.2 -78.3,265.7 -113.1,265.7 -113.1,282.9 
		-130.8,282.9 	"/>
	<rect x="-7.3" y="230.7" class="st2" width="17.9" height="21.9"/>
	
		<linearGradient id="SVGID_1_" gradientUnits="userSpaceOnUse" x1="-621.9753" y1="266.6231" x2="-621.9753" y2="337.7353" gradientTransform="matrix(3.3637 0 0 -3.3637 2094.238 1371.4401)">
		<stop  offset="0" style="stop-color:#8A5F50"/>
		<stop  offset="1" style="stop-color:#342716"/>
	</linearGradient>
	<path class="st3" d="M81.4,472.9H62.9v-19.1H44v-13.5H27.9v-18.5h51.8v-16.5H114v-18.9h17.9v-97.5h18.9v104.2h18.5v45.8h-18.5v-37
		h-18.9v19.9h-16.1v32.6H83.2l0,0h-1.7L81.4,472.9L81.4,472.9z M-150.1,289.2h18.8v113h-15.7v36.6h-18.2v-46.1h15.2L-150.1,289.2
		L-150.1,289.2z M79.4,243.1L79.4,243.1v6.4H10.8v-1.7v-5v-7.4H79v7.8L79.4,243.1L79.4,243.1z M115.8,271.1h16.1v10.7h-16.1V271.1
		L115.8,271.1z M79.8,252.9H115V266H79.8V252.9L79.8,252.9z M-78.3,235.4h70.9v13.8h-70.9V235.4L-78.3,235.4z M-113.1,252.9h35v12.8
		h-35L-113.1,252.9L-113.1,252.9z M-130.8,270.4h18.5v12.8h-18.5V270.4L-130.8,270.4z M-131.1,388.1h18.2v16.5h39v17.1h48.4v17.5
		h-16.8v14.5h-16.8l-0.4,20.9h-18.5v-20.2h-35.3v-33.3h-17.8L-131.1,388.1L-131.1,388.1z"/>
	<rect x="-7.3" y="123.4" class="st4" width="18.1" height="107"/>
	<polygon class="st5" points="97.9,508.2 97.9,484.4 81.4,484.4 81.4,471.2 64.3,471.2 64.3,453.8 44.8,453.8 44.8,439.2 
		27.9,439.2 27.9,453.8 -25.8,453.8 -25.8,439.2 -42.8,439.2 -42.8,453.8 -60.2,453.8 -60.2,471.2 -77.7,471.2 -77.7,484 -94.6,484 
		-94.6,508.2 -112.7,508.2 -112.7,521 -77.1,521 -77.1,509.2 -58.8,509.2 -58.8,493.4 -43.1,493.4 -43.1,521 47.4,521 47.4,493.4 
		63.3,493.4 63.3,509.2 81.4,509.2 81.4,521 115.8,521 115.8,508.2 	"/>
	<polygon points="-25.8,453.8 27.9,453.8 27.9,470.2 9.2,470.2 9.2,488 -7.1,488 -7.1,470.2 -25.8,470.2 	"/>
</g>
</svg>
